<?xml version="1.0" encoding="utf-8"?>
<!-- Generator: Adobe Illustrator 25.4.1, SVG Export Plug-In . SVG Version: 6.00 Build 0)  -->
<svg version="1.1" id="Capa_1" xmlns="http://www.w3.org/2000/svg" xmlns:xlink="http://www.w3.org/1999/xlink" x="0px" y="0px"
	 viewBox="0 0 400 180.79" style="enable-background:new 0 0 400 180.79;" xml:space="preserve">
<style type="text/css">
	.st0{fill:#FFFFFF;}
</style>
<g>
	<path class="st0" d="M226.75,75.04c-0.01,3.63-0.07,7.27-0.01,10.9c0.02,1.14-0.31,1.51-1.48,1.5c-4.82-0.06-9.65-0.05-14.47,0
		c-1.02,0.01-1.58-0.35-2.04-1.25c-7.06-13.95-14.9-27.51-20.95-41.97c-0.07-0.16-0.21-0.29-0.42-0.58
		c-0.38,0.47-0.27,0.95-0.26,1.39c0.32,13.53,0.15,27.05,0.23,40.58c0.01,1.34-0.27,1.93-1.75,1.85c-2.25-0.12-4.51-0.09-6.76-0.01
		c-1.24,0.04-1.76-0.24-1.75-1.63c0.05-16.72,0.04-33.45,0.01-50.17c0-1.23,0.38-1.62,1.61-1.6c4.76,0.06,9.52,0.05,14.28,0
		c1.02-0.01,1.58,0.35,2.03,1.26c6.85,13.64,14.22,27.02,20.5,40.96c0.17,0.38,0.44,0.71,0.67,1.07c0.74-0.43,0.48-1.06,0.47-1.56
		c-0.36-13.34-0.05-26.68-0.19-40.02c-0.01-1.31,0.39-1.76,1.71-1.71c2.38,0.09,4.76,0.06,7.14,0.01c1.04-0.03,1.46,0.3,1.42,1.38
		c-0.07,1.81-0.02,3.63-0.02,5.58c0.89-0.26,1.15-1.04,1.67-1.5c2.85-2.49,6.18-2.78,9.72-2.26c0.68,0.1,1.35,0.22,2.03,0.33
		c1.5,0.73,2.99,1.46,4.49,2.19c0.79,0.78,1.63,1.48,2.68,1.89c0.68,1.29,1.68,2.26,2.95,2.96c0.12,0.61,0.72,0.82,1.03,1.25
		c0.45,0.62,0.54,1.62-0.05,2.04c-0.54,0.39-1.42,0.26-1.71-0.77c-0.23-0.81-0.81-1.39-1.68-1.59c-0.68-1.38-1.95-2.08-3.19-2.82
		c-1.04-0.78-2.12-1.5-3.47-1.6c-1.46-1.26-3.22-1.27-4.99-1.23c-4.57,0.49-7.44,4.16-7.54,9.67c-0.21,2.34-0.16,4.66,0.42,6.94
		c1.1,5.99,3.53,11.35,7.62,15.96c-0.6-0.25-1.08-0.6-1.54-0.97c-2.29-1.88-3.87-4.39-5.73-6.64c-0.68-1.46-1.21-3-2.19-4.32
		c-0.42-0.95-0.49-0.45-0.5,0.13c-0.03,2.65-0.06,5.3-0.08,7.95c-3.28-4.87-3.69-10.07-1.61-15.56c-2.98,3.05-4.26,8.41-3.41,12.59
		C222.38,69.32,224.41,72.25,226.75,75.04z"/>
	<path class="st0" d="M128.16,43.43c0.11,2.41,0.3,4.82,0.31,7.23c0.03,11.53-0.02,23.05,0.05,34.58c0.01,1.69-0.39,2.34-2.18,2.21
		c-2.12-0.16-4.26-0.1-6.39-0.01c-1.29,0.06-1.77-0.33-1.73-1.67c0.08-3.13,0.03-6.26,0.03-9.4c0-13.4,0.02-26.81-0.03-40.21
		c-0.01-1.59,0.33-2.19,2.06-2.15c4.44,0.13,8.89,0.1,13.34,0.01c1.38-0.03,2.12,0.4,2.75,1.64c6.69,13.3,13.85,26.37,20,39.95
		c0.35,0.77,0.73,1.52,1.26,2.22c0.37-2.27,0.02-4.48,0.01-6.69c-0.04-11.71,0.01-23.43-0.05-35.14c-0.01-1.58,0.46-2.07,2.01-1.98
		c2.06,0.12,4.14,0.13,6.2,0c1.56-0.1,2,0.38,2,1.97c-0.06,14.53-0.04,29.06-0.04,43.6c0,2.13-0.06,4.26,0.02,6.39
		c0.05,1.19-0.4,1.47-1.52,1.46c-4.63-0.05-9.27-0.07-13.91,0.01c-1.3,0.02-2-0.37-2.6-1.56c-7.16-14.11-15.07-27.84-21.14-42.5
		C128.47,43.4,128.32,43.41,128.16,43.43z"/>
	<path class="st0" d="M44.9,87.86c-2.53,0.05-6.21-0.15-9.85-0.83c-6.25-1.17-8.88-3.86-9.74-10.16c-0.22-1.6-0.16-3.25-0.29-4.87
		c-0.1-1.34,0.48-1.73,1.77-1.68c2.19,0.09,4.38,0.07,6.57,0.01c1.17-0.03,1.65,0.29,1.68,1.57c0.15,6.82,1.76,7.13,7.22,7.49
		c4.01,0.26,7.99,0.38,11.95-0.43c1.89-0.38,2.9-1.54,3.38-3.34c0.52-1.97,0.54-3.98,0.33-5.97c-0.29-2.69-1.42-3.83-4.16-4.31
		c-3.52-0.61-7.1-0.56-10.65-0.85c-3.69-0.3-7.33-0.75-10.91-1.75c-3.41-0.95-5.48-3.07-6.24-6.52c-1.06-4.78-1.1-9.56,0.11-14.31
		c0.96-3.74,3.4-6.12,7.12-6.98c8.66-1.99,17.36-2.02,26.04-0.06c4.12,0.93,6.35,3.74,7.22,7.76c1.49,6.85,1.33,7.06-5.53,7.06
		c-0.19,0-0.38,0-0.56,0c-3.21,0-3.21,0-3.86-3.2c-0.61-3.01-1.49-4.08-4.31-4.39c-4.11-0.45-8.24-0.49-12.34,0.26
		c-2.31,0.43-3.65,1.81-4.03,4.11c-0.1,0.61-0.14,1.24-0.14,1.87c-0.05,5.86,0.69,6.58,6.51,7.23c6.02,0.68,12.11,0.54,18.06,2.03
		c4.19,1.04,6.72,3.38,7.41,7.65c0.82,5,0.76,9.97-0.65,14.88c-0.99,3.46-3.34,5.44-6.78,6.32C55.58,87.67,50.84,87.84,44.9,87.86z"
		/>
	<path class="st0" d="M377.9,87.41c-5.24,0-5.24,0-6.89-5c-1.73-5.21-1.73-5.21-7.17-5.21c-5.26,0-10.52,0.04-15.78-0.03
		c-1.29-0.02-1.88,0.41-2.23,1.66c-0.68,2.47-1.58,4.88-2.33,7.33c-0.28,0.9-0.71,1.29-1.71,1.27c-2.69-0.07-5.39-0.08-8.08,0
		c-1.36,0.04-1.38-0.45-1.01-1.56c5.63-16.78,11.22-33.58,16.8-50.38c0.35-1.05,0.8-1.5,1.97-1.48c4.07,0.08,8.14,0.07,12.21,0.01
		c1.18-0.02,1.76,0.33,2.15,1.51c5.57,16.6,11.2,33.17,16.82,49.76c0.71,2.1,0.7,2.11-1.54,2.11
		C380.03,87.41,378.97,87.41,377.9,87.41z M357.9,42.6c-0.31,0.48-0.45,0.62-0.51,0.79c-2.72,8.26-5.41,16.52-8.15,24.77
		c-0.41,1.23,0.12,1.35,1.13,1.35c4.95-0.03,9.9-0.05,14.84,0.01c1.48,0.02,1.51-0.51,1.1-1.68c-1.05-3.01-2-6.06-3-9.09
		C361.55,53.48,359.78,48.21,357.9,42.6z"/>
	<path class="st0" d="M73.91,60.72c0-8.21,0.05-16.41-0.04-24.62c-0.02-1.69,0.52-2.1,2.14-2.09c10.84,0.07,21.67,0.07,32.51,0
		c1.67-0.01,2.23,0.45,2.07,2.11c-0.14,1.49-0.13,3.01,0,4.5c0.14,1.62-0.34,2.16-2.05,2.13c-7.39-0.1-14.78,0.02-22.17-0.08
		c-1.77-0.02-2.25,0.51-2.18,2.22c0.13,3.06,0.12,6.14,0,9.21c-0.07,1.67,0.35,2.26,2.15,2.23c6.95-0.11,13.91,0,20.86-0.08
		c1.57-0.02,2.15,0.44,1.98,2.01c-0.18,1.73,0.71,3.97-0.34,5.1c-1.15,1.24-3.44,0.41-5.22,0.43c-5.83,0.06-11.65,0.06-17.48-0.01
		c-1.45-0.02-1.99,0.37-1.95,1.9c0.1,3.76,0.11,7.52,0,11.27c-0.05,1.56,0.53,1.86,1.95,1.85c7.58-0.06,15.16,0.03,22.74-0.07
		c1.71-0.02,2.18,0.5,2.06,2.12c-0.14,1.74-0.07,3.51-0.02,5.26c0.03,0.98-0.34,1.3-1.31,1.3c-11.46-0.02-22.93-0.03-34.39,0
		c-1.55,0-1.3-0.99-1.3-1.9C73.91,77.26,73.91,68.99,73.91,60.72z"/>
	<path class="st0" d="M190.88,101.37c62.26,0,124.52,0,186.78,0c2.15,0,2.42,0.39,1.66,2.15c-0.24,0.56-0.59,0.77-1.13,0.78
		c-0.44,0.01-0.88,0.01-1.32,0.01c-124.33,0-248.66,0-372.99,0.01c-1.35,0-2.55,0.09-2.27-1.88c0.11-0.8,0.41-1.11,1.18-1.07
		c0.5,0.03,1,0,1.5,0C66.49,101.37,128.68,101.37,190.88,101.37z"/>
	<path class="st0" d="M284.15,38.77c-0.18-0.73-0.32-1.47-0.54-2.19c-0.75-2.53-0.76-2.53,1.81-2.53c2.19,0,4.38,0.06,6.57-0.02
		c1.14-0.04,1.67,0.36,2.01,1.44c4.36,13.83,9.47,27.42,13.18,41.46c0.09,0.35,0.07,0.76,0.59,1c0.74-1.02,0.89-2.27,1.21-3.43
		c3.63-13.15,8.35-25.95,12.39-38.97c0.36-1.16,0.98-1.55,2.18-1.5c2.38,0.09,4.76,0.02,7.14,0.03c2.05,0,2.06,0.01,1.4,2.08
		c-3.09,9.58-6.18,19.16-9.27,28.74c-2.21,6.84-4.46,13.67-6.58,20.54c-0.49,1.6-1.22,2.11-2.88,2.04
		c-3.88-0.14-7.76-0.1-11.64-0.01c-1.35,0.03-1.96-0.39-2.38-1.71c-3.17-10.08-6.42-20.13-9.67-30.19
		c-0.23-0.72-0.14-1.68-1.14-1.98c0.36-1.39-0.28-2.77-0.06-4.16c2.32,2.58,2.57,5.89,3.26,9.05c0.99-5.4-0.39-10.02-4.48-13.77
		C286.57,42.52,285.48,40.58,284.15,38.77z"/>
	<path class="st0" d="M252.31,29.19c-0.69-0.68-1.53-0.34-2.31-0.3c-6.16,0.32-11.72,2.3-16.64,6.05c-0.42,0.32-0.84,0.88-1.79,0.71
		c1.69-2.16,3.63-3.75,5.82-5.02c10.52-6.11,21.26-6.18,32.16-1.08c0.51,0.24,1,0.5,1.5,0.75c0.31,0.36,0.67,0.56,1.16,0.4
		l-0.03-0.02c-0.1,0.36,0.1,0.6,0.36,0.78c4.17,2.76,6.85,6.73,9.08,11.08c0.3,1.09,0.6,2.19,0.9,3.28
		c0.67,1.53,0.69,3.19,1.04,4.79c-0.04,1.24-0.05,2.49-0.14,3.73c-0.49,6.45-5.43,11.69-11.81,12.55c-2.35,0.32-4.54-0.45-6.76-0.97
		c-0.3-0.58-0.81-0.83-1.41-0.96c-1.17-1.03-2.27-2.82-3.51-2.91c-1.85-0.15-1.47-1.11-1.58-2.07c-0.07-0.64-0.29-1.62,0.81-1.41
		c0.63,0.12,2.35-1.03,1.85,1.14c-0.05,0.2,0.26,0.56,0.48,0.74c1.28,1.09,2.54,2.22,4.24,2.64c0.63,0.58,1.4,0.73,2.22,0.69
		c1.28,0.46,2.56,0.3,3.84-0.02c7.46-1.85,9.65-12.01,5.74-18.81c-0.1-1.19-0.28-2.34-1.44-3.01c0.05-0.46-0.14-0.84-0.38-1.22
		c-2.32-3.56-5.28-6.41-9.2-8.18c-0.63-0.56-1.36-0.94-2.2-1.07C260.5,29.75,256.52,28.9,252.31,29.19z"/>
	<path class="st0" d="M283.38,80.64c-4.02,5.92-9.52,9.9-16.32,11.93c-12.9,3.86-24.53,1.6-34.87-7.29
		c-0.97-0.84-1.63-1.41-2.02-2.61c-0.51-1.56-0.06-2.17,1.48-2.23c0.37-0.01,0.74-0.08,1.11-0.13l-0.01-0.02
		c-0.9,1.33,0.08,1.96,1,2.5c8.87,5.2,18.24,8.22,28.66,6.33c5.45-0.99,10.4-3.1,14.51-6.94C279.07,81.67,281.22,81.16,283.38,80.64
		z"/>
	<path class="st0" d="M226.75,75.04c-2.34-2.79-4.38-5.73-5.13-9.41c-0.85-4.18,0.43-9.53,3.41-12.59
		c-2.08,5.49-1.67,10.7,1.61,15.57c0.89,1.68,2.15,3.06,3.55,4.3c7.67,6.81,16.79,8.97,26.76,8.07c2.36-0.21,4.82-0.53,6.81-2.13
		c1.15,0.24,2.16,0.77,3.14,1.38c-1.36,1.24-3,2.03-4.7,2.63c-9.38,3.31-18.5,2.71-27.34-1.94c-0.62-0.33-1.19-1.2-2.11-0.61
		l0.01,0.02c0.38-0.34,0.06-0.56-0.17-0.71C230.48,78.3,228.66,76.62,226.75,75.04z"/>
	<path class="st0" d="M266.9,80.23c-0.98-0.61-2-1.14-3.14-1.38c-1.81-1.28-3.63-2.55-5.44-3.83c-0.15-0.89-0.74-1.34-1.56-1.55
		c-0.03-0.18,0-0.41-0.1-0.54c-1.97-2.6-3.75-5.31-4.9-8.39c-0.25-0.65-0.66-0.79-1.33-0.52c-0.58,0.23-0.85-0.08-0.65-0.67
		c0.41-1.18,0.85-2.35,1.3-3.51c0.17-0.46,0.48-0.77,1-0.49c1.29,0.68,2.74,1.08,3.86,2.15c-1.44,1.04-1.55,1.09-1.26,1.66
		c1.96,3.78,4.02,7.5,7.75,9.91c0.12,0.62,0.55,0.86,1.13,0.91c1.3,1.28,2.88,2.08,4.58,2.68c0.76,0.53,1.58,0.88,2.51,0.91
		c1.05,0.48,2.11,0.91,3.29,0.46c1.04,1.36,2.48,0.66,3.77,0.73c1.19,0.2,2.31-0.18,3.45-0.44c0.15-0.09,0.29-0.17,0.44-0.26
		l-0.04,0.01c2.2-0.34,3.9-1.5,5.29-3.17c0.13-0.2,0.26-0.4,0.4-0.6l-0.02,0.02c2.54-2.42,3.06-5.56,3.16-8.84
		c0.02-0.74,0-1.48,0-2.06c2.27,5.71,0.33,12.26-4.82,15.82c-0.72,0.5-1.46,0.94-2.2,1.41c-2.15,0.52-4.3,1.03-6.46,1.55
		c-1.29-0.35-2.59-0.14-3.88,0.01c-0.76-1.28-2.2-0.6-3.23-1.11C268.84,80.8,267.87,80.51,266.9,80.23z"/>
	<path class="st0" d="M277.71,78.74c-1.29-0.08-2.73,0.63-3.77-0.73c0.25-0.28,0.5-0.56,0.74-0.84c6.66-7.59,10.35-16.25,9.48-26.54
		c0.04-1.66-0.62-3.19-0.87-4.79c2.21,0.48,3.94,1.66,5.16,3.57c-0.23,1.39,0.42,2.77,0.06,4.16c-0.02,1.03-0.05,2.06-0.07,3.09
		c-0.34,3.37-1.7,6.48-2.37,9.77c-0.39,0.3-0.4,0.71-0.34,1.14l0.02-0.04c-0.21,0.2-0.51,0.37-0.62,0.62
		C283.27,72.11,280.59,75.49,277.71,78.74z"/>
	<path class="st0" d="M220.84,148.13c0,1.88,0.1,3.76-0.02,5.63c-0.16,2.56-1.45,4.25-3.47,4.85c-2.44,0.73-5.34,0.06-6.57-1.56
		c-0.42-0.56-1.21-1.33-0.48-1.94c0.78-0.65,1.25,0.21,1.71,0.84c1,1.38,2.81,1.77,4.73,1.21c1.67-0.49,2.16-1.76,2.31-3.27
		c0.09-0.91-0.02-1.51-1.22-0.87c-4.05,2.16-7.93-0.01-8.29-4.58c-0.3-3.82,1.04-6.42,3.82-7.36c1.16-0.39,2.33-0.42,3.49,0.03
		c0.95,0.37,1.74,1.56,2.97,0.22c0.44-0.48,1.07,0.17,1.06,0.98c-0.03,1.94-0.01,3.88-0.01,5.82
		C220.86,148.13,220.85,148.13,220.84,148.13z M219.18,147.72c0.03-1.01-0.15-1.98-0.52-2.92c-0.6-1.52-1.6-2.5-3.32-2.55
		c-1.77-0.05-3.01,0.82-3.64,2.4c-0.8,1.99-0.86,4.03,0.27,5.94c1.53,2.59,4.87,2.56,6.4-0.02
		C218.89,149.69,219.14,148.74,219.18,147.72z"/>
	<path class="st0" d="M79.19,129.59c-1.67,0.13-2.95-0.14-4.18-0.62c-1.57-0.6-2.59-1.77-2.96-3.39c-0.16-0.7-0.68-1.77,0.49-2.07
		c1.29-0.33,1.06,0.84,1.25,1.57c0.28,1.09,0.91,1.94,1.94,2.4c1.97,0.88,3.98,1.04,6,0.15c1.25-0.56,2.01-1.46,1.99-2.9
		c-0.02-1.41-0.9-2.21-2.08-2.6c-1.78-0.58-3.63-0.95-5.43-1.47c-2.68-0.77-3.84-2.09-3.78-4.21c0.06-2.21,1.58-4.09,3.97-4.63
		c2.33-0.53,4.61-0.37,6.61,1.15c0.88,0.67,1.51,1.51,1.75,2.59c0.12,0.54,0.58,1.28-0.43,1.51c-0.77,0.18-1.02-0.25-1.3-0.94
		c-1.07-2.72-3.89-3.84-6.63-2.72c-1.33,0.54-2.16,1.46-2.14,2.98c0.02,1.54,0.98,2.2,2.3,2.54c1.51,0.39,3.03,0.79,4.54,1.2
		c3.26,0.87,4.58,2.33,4.41,4.92c-0.17,2.52-2.01,4.17-5.12,4.54C79.88,129.64,79.37,129.59,79.19,129.59z"/>
	<path class="st0" d="M123.74,122.72c0-1.69,0-3.38,0-5.07c0-1.23,0.63-1.55,1.48-0.74c0.6,0.57,0.85,0.34,1.37,0.02
		c2.26-1.39,3.87-1.26,5.91,0.59c0.55,0.5,0.74,0.36,1.16-0.05c1.55-1.52,3.41-1.84,5.36-0.99c1.96,0.86,2.24,2.68,2.23,4.58
		c-0.02,2.25,0,4.51-0.01,6.76c0,0.6,0.16,1.33-0.82,1.35c-0.98,0.02-0.86-0.7-0.86-1.31c-0.01-2.38,0.02-4.76-0.03-7.13
		c-0.05-2.14-0.88-3.1-2.62-3.21c-1.74-0.11-3.09,0.94-3.4,2.81c-0.41,2.48-0.09,5-0.19,7.5c-0.02,0.57,0.22,1.34-0.8,1.36
		c-0.97,0.02-0.88-0.68-0.88-1.3c-0.01-2.32,0.02-4.63-0.01-6.95c-0.03-2.25-0.81-3.31-2.4-3.41c-1.85-0.12-3.43,1.06-3.62,3.07
		c-0.22,2.36-0.12,4.75-0.17,7.12c-0.01,0.65,0.21,1.48-0.91,1.45c-1.02-0.03-0.77-0.8-0.78-1.37
		C123.72,126.1,123.74,124.41,123.74,122.72z"/>
	<path class="st0" d="M272.93,123.4c0,2,0.11,4.01-0.03,6.01c-0.15,2.14-1.09,3.89-3.38,4.45c-2.43,0.59-4.76,0.48-6.58-1.52
		c-0.46-0.51-1.22-1.29-0.47-1.94c0.82-0.7,1.23,0.21,1.69,0.83c1.02,1.4,3.04,1.81,4.93,1.18c1.67-0.56,2.05-1.88,2.16-3.39
		c0.06-0.83-0.03-1.36-1.13-0.76c-4.23,2.3-8.16,0.03-8.4-4.79c-0.11-2.13,0.14-4.12,1.71-5.76c1.74-1.82,4.49-2.2,6.5-0.83
		c0.62,0.42,0.94,1.02,1.68-0.06c0.49-0.71,1.38-0.37,1.38,0.76c0,0.06,0,0.13,0,0.19c0,1.88,0,3.76,0,5.64
		C272.97,123.4,272.95,123.4,272.93,123.4z M271.4,122.5c-0.14-0.63-0.25-1.5-0.53-2.32c-0.52-1.54-1.54-2.55-3.25-2.66
		c-1.78-0.11-3,0.8-3.7,2.33c-0.81,1.77-0.89,3.62-0.11,5.44c1.08,2.53,4.12,3.31,6,1.53C270.97,125.72,271.28,124.26,271.4,122.5z"
		/>
	<path class="st0" d="M22.99,136.74c0.19,0,0.38,0,0.56,0c7.84,0,11.64,5.86,8.49,13.12c-1.19,2.73-3.57,3.78-6.32,4.02
		c-1.87,0.16-3.76,0-5.63,0.05c-1,0.03-1.29-0.36-1.28-1.32c0.03-4.82,0.04-9.65,0-14.47c-0.01-1.03,0.26-1.51,1.37-1.42
		C21.1,136.81,22.05,136.75,22.99,136.74z M20.45,145.31c0,2,0.01,4-0.01,6c-0.01,0.7,0.09,1.24,0.99,1.2
		c1.74-0.09,3.49,0.14,5.22-0.27c2.4-0.57,3.83-2.03,4.22-4.44c0.27-1.67,0.29-3.37-0.03-5.04c-0.43-2.3-1.78-3.75-4.13-4.3
		c-1.74-0.4-3.48-0.19-5.22-0.28c-1.03-0.06-1.06,0.58-1.06,1.33C20.46,141.43,20.45,143.37,20.45,145.31z"/>
	<path class="st0" d="M172.78,117.89c0-1.77,0-3.36,0-4.95c0-0.64-0.03-1.32,0.89-1.33c1-0.01,0.8,0.77,0.8,1.35
		c0.01,5,0.01,9.99,0,14.99c0,0.4,0.17,0.93-0.37,1.14c-0.42,0.16-0.91,0.17-1.14-0.32c-0.47-0.98-0.95-0.36-1.47-0.07
		c-3.92,2.19-7.83,0.34-8.57-4.08c-0.23-1.36-0.23-2.74,0.12-4.09c1.14-4.4,5.42-5.82,9-3
		C172.18,117.63,172.35,117.68,172.78,117.89z M172.77,122.84c-0.02-1.07-0.08-2.14-0.61-3.1c-0.78-1.42-1.97-2.21-3.62-2.24
		c-1.64-0.03-2.76,0.83-3.41,2.21c-1.05,2.22-0.98,4.5,0.19,6.66c0.63,1.18,1.7,1.78,3.07,1.81
		C171.14,128.26,172.78,126.27,172.77,122.84z"/>
	<path class="st0" d="M69.11,147.9c0,1.06-0.01,2.13,0.01,3.19c0.01,0.48-0.11,1.04,0.42,1.35c0.45,0.26,1.32,0.32,0.8,1.09
		c-0.49,0.73-1.65,0.66-1.99,0.16c-0.99-1.47-1.62-0.65-2.6-0.02c-1.63,1.04-3.48,0.99-5.2,0.15c-1.29-0.63-1.81-1.82-1.81-3.26
		c0-1.85,1.01-2.94,2.67-3.38c1.44-0.39,2.93-0.59,4.4-0.81c0.81-0.12,1.49-0.33,1.56-1.28c0.07-0.99-0.14-1.86-1.09-2.41
		c-1.88-1.08-4.25-0.37-5.16,1.61c-0.31,0.69-0.71,1.11-1.4,0.8c-0.72-0.33-0.32-0.98-0.15-1.47c0.75-2.14,2.99-3.17,5.93-2.77
		c2.33,0.32,3.46,1.57,3.58,4.05C69.15,145.89,69.1,146.9,69.11,147.9C69.11,147.9,69.11,147.9,69.11,147.9z M67.42,148.79
		c-0.08-0.56,0.26-1.47-0.96-1.23c-1.47,0.29-2.96,0.47-4.4,0.87c-0.99,0.28-1.84,0.94-1.72,2.16c0.13,1.29,0.97,2,2.18,2.26
		C65.11,153.42,67.45,151.49,67.42,148.79z"/>
	<path class="st0" d="M345.77,147.9c0,1.06-0.01,2.13,0.01,3.19c0.01,0.48-0.1,1.05,0.43,1.35c0.46,0.26,1.32,0.34,0.79,1.1
		c-0.5,0.71-1.65,0.66-1.99,0.14c-1.02-1.52-1.66-0.56-2.61,0.01c-1.66,1-3.5,0.96-5.21,0.1c-1.21-0.61-1.73-1.74-1.76-3.1
		c-0.05-1.94,0.98-3.07,2.73-3.54c1.38-0.37,2.81-0.56,4.23-0.77c0.87-0.13,1.63-0.31,1.68-1.38c0.05-1.08-0.25-1.96-1.34-2.44
		c-2.02-0.88-3.93-0.23-4.94,1.82c-0.3,0.6-0.66,0.96-1.29,0.72c-0.67-0.24-0.41-0.82-0.28-1.29c0.58-2.14,2.61-3.22,5.61-3
		c2.46,0.18,3.72,1.32,3.93,3.7c0.1,1.12,0.02,2.25,0.02,3.38C345.75,147.9,345.76,147.9,345.77,147.9z M340.34,152.92
		c1.47-0.2,2.86-0.81,3.5-2.47c0.34-0.89,0.55-1.97,0.01-2.7c-0.44-0.6-1.38-0.04-2.09,0.07c-0.8,0.12-1.62,0.18-2.4,0.4
		c-1.31,0.37-2.65,0.91-2.32,2.62C337.35,152.45,338.63,152.96,340.34,152.92z"/>
	<path class="st0" d="M283.7,127.58c-1.58,1.96-3.58,2.42-5.8,1.87c-1.69-0.42-2.65-1.49-2.74-3.33c-0.09-1.93,0.79-3.14,2.57-3.62
		c1.44-0.38,2.93-0.55,4.41-0.78c0.79-0.12,1.5-0.32,1.64-1.24c0.14-0.85-0.08-1.62-0.73-2.22c-1.49-1.4-4.64-0.86-5.47,1.02
		c-0.33,0.76-0.61,1.57-1.53,1.05c-0.83-0.46-0.18-1.24,0.09-1.81c0.94-1.97,3.32-2.87,6-2.34c2.25,0.45,3.29,1.74,3.35,4.28
		c0.04,1.69-0.01,3.38,0.02,5.07c0.02,0.94-0.29,1.95,0.98,2.56c0.62,0.3,0.34,0.95-0.44,1.1
		C284.85,129.41,284.23,128.69,283.7,127.58z M283.83,123.99c-0.29-0.27,0.46-1.36-0.73-1.16c-1.65,0.27-3.35,0.29-4.92,1.01
		c-0.85,0.39-1.48,0.93-1.46,1.96c0.02,1.06,0.59,1.73,1.51,2.16C280.78,129.14,283.84,127.05,283.83,123.99z"/>
	<path class="st0" d="M153.68,123.32c0,1-0.01,2,0.01,3c0.01,0.49-0.1,1.03,0.4,1.36c0.48,0.31,1.46,0.54,0.72,1.26
		c-0.55,0.54-1.68,0.54-2.18-0.2c-0.7-1.05-1.1-0.67-1.84-0.09c-1.55,1.2-3.34,1.28-5.16,0.65c-1.62-0.56-2.32-1.77-2.32-3.46
		c0-1.66,0.79-2.81,2.32-3.25c1.49-0.43,3.04-0.64,4.58-0.86c0.88-0.13,1.62-0.32,1.73-1.34c0.11-1-0.14-1.86-1.05-2.42
		c-1.83-1.12-4.31-0.4-5.15,1.57c-0.3,0.7-0.68,1.11-1.38,0.85c-0.78-0.29-0.39-0.93-0.21-1.43c0.78-2.22,3.12-3.3,6.08-2.82
		c2.21,0.36,3.36,1.73,3.45,4.19C153.71,121.32,153.68,122.32,153.68,123.32z M151.99,124.17c-0.19-0.43,0.42-1.51-0.81-1.31
		c-1.58,0.25-3.22,0.29-4.72,0.95c-0.9,0.4-1.62,0.97-1.56,2.08c0.06,1.14,0.76,1.81,1.77,2.16
		C149.26,128.93,151.96,127,151.99,124.17z"/>
	<path class="st0" d="M232.18,123.37c-1.19,0-2.38,0.03-3.56-0.01c-1-0.03-1.36,0.34-1.11,1.36c0.44,1.79,1.41,3.13,3.29,3.43
		c1.74,0.28,3.22-0.3,4.03-2.03c0.31-0.66,0.71-1.4,1.5-0.96c0.91,0.5,0.1,1.2-0.14,1.74c-0.83,1.86-2.39,2.63-4.35,2.71
		c-2.07,0.09-3.89-0.45-4.99-2.33c-1.53-2.61-1.59-5.37-0.33-8.09c1.02-2.2,2.82-3.27,5.28-3.12c2.14,0.13,3.91,1.53,4.67,3.75
		c0.14,0.41,0.23,0.84,0.32,1.27c0.44,2.1,0.32,2.26-1.8,2.26C234.05,123.38,233.12,123.37,232.18,123.37z M231.4,121.98
		c0.93,0,1.87-0.04,2.8,0.01c1.12,0.06,1.29-0.49,0.98-1.38c-0.59-1.7-1.61-2.97-3.55-3.1c-1.86-0.13-3.03,0.88-3.78,2.47
		c-0.79,1.68-0.59,1.99,1.32,2C229.91,121.99,230.66,121.98,231.4,121.98z"/>
	<path class="st0" d="M116.99,123.38c-1.12,0-2.25,0.05-3.37-0.01c-1.27-0.07-1.5,0.52-1.22,1.6c0.45,1.74,1.52,2.89,3.29,3.18
		c1.68,0.27,3.08-0.32,3.94-1.89c0.12-0.22,0.22-0.45,0.33-0.67c0.28-0.59,0.82-0.63,1.27-0.41c0.52,0.25,0.25,0.77,0.1,1.16
		c-0.66,1.79-1.92,2.92-3.82,3.2c-2.07,0.31-4.02,0.03-5.45-1.7c-2-2.41-2.05-7.19-0.13-9.68c1.55-2.01,4.3-2.7,6.57-1.63
		c2,0.94,3.67,4.08,3.31,6.09c-0.12,0.69-0.54,0.75-1.07,0.75C119.49,123.38,118.24,123.38,116.99,123.38
		C116.99,123.38,116.99,123.38,116.99,123.38z M116.09,121.98c0.93,0,1.87-0.05,2.8,0.01c1.24,0.08,1.36-0.55,1.06-1.5
		c-0.54-1.68-1.61-2.82-3.43-2.97c-1.75-0.14-2.96,0.73-3.73,2.26c-0.89,1.79-0.67,2.18,1.25,2.2
		C114.72,121.98,115.4,121.98,116.09,121.98z"/>
	<path class="st0" d="M183.15,123.39c-1.19,0-2.38,0.03-3.57-0.01c-1.07-0.04-1.26,0.48-1.08,1.41c0.34,1.8,1.41,2.98,3.15,3.33
		c1.73,0.35,3.24-0.21,4.12-1.88c0.36-0.68,0.71-1.59,1.59-1.02c0.76,0.49,0.04,1.26-0.25,1.82c-1.71,3.3-7.14,3.61-9.17,0.46
		c-1.8-2.81-1.74-5.85-0.25-8.76c1.19-2.32,4.09-3.26,6.49-2.38c2.28,0.84,4.11,3.93,3.75,6.19c-0.13,0.8-0.64,0.82-1.22,0.83
		C185.52,123.39,184.34,123.38,183.15,123.39L183.15,123.39z M182.24,121.98c0.88,0,1.76-0.06,2.63,0.01
		c1.5,0.12,1.54-0.65,1.14-1.72c-0.63-1.68-1.77-2.73-3.63-2.75c-1.88-0.02-2.99,1.09-3.68,2.7c-0.46,1.07-0.6,1.97,1.1,1.78
		C180.6,121.9,181.42,121.98,182.24,121.98z"/>
	<path class="st0" d="M266.76,148.04c-1.13,0-2.26,0.06-3.38-0.01c-1.29-0.08-1.47,0.48-1.19,1.59c0.45,1.74,1.42,2.96,3.22,3.26
		c1.77,0.3,3.2-0.34,4.05-2.01c0.32-0.63,0.68-1.41,1.5-0.97c0.9,0.49,0.11,1.18-0.13,1.71c-0.88,1.92-2.48,2.7-4.53,2.75
		c-2.1,0.05-3.89-0.56-4.9-2.49c-1.53-2.92-1.56-5.93,0.2-8.76c2.01-3.24,6.98-3.04,8.97,0.28c0.49,0.82,0.68,1.74,0.93,2.64
		c0.44,1.59-0.09,2.2-1.73,2.04C268.77,147.95,267.76,148.04,266.76,148.04z M265.92,146.7c0.87,0,1.75-0.05,2.62,0.01
		c1.42,0.09,1.61-0.58,1.17-1.72c-0.61-1.58-1.67-2.65-3.44-2.75c-1.84-0.11-3.08,0.81-3.82,2.46c-0.74,1.65-0.55,1.97,1.21,2
		C264.42,146.71,265.17,146.7,265.92,146.7z"/>
	<path class="st0" d="M41.06,148.04c-1.25,0-2.5,0.02-3.75-0.01c-0.82-0.02-1.08,0.33-1.01,1.14c0.15,1.68,1.41,3.34,3.04,3.65
		c1.73,0.32,3.23-0.1,4.18-1.74c0.16-0.27,0.3-0.55,0.44-0.83c0.3-0.6,0.85-0.56,1.29-0.35c0.54,0.26,0.22,0.78,0.07,1.15
		c-0.77,1.89-2.13,3.07-4.21,3.26c-2.17,0.2-4.21-0.2-5.4-2.23c-1.68-2.86-1.67-5.87-0.09-8.76c1.25-2.28,4.07-3.13,6.54-2.19
		c2.17,0.83,3.92,3.81,3.64,6.07c-0.1,0.82-0.59,0.84-1.17,0.84C43.44,148.04,42.25,148.04,41.06,148.04
		C41.06,148.04,41.06,148.04,41.06,148.04z M40.05,146.7c0.94,0,1.88-0.05,2.81,0.01c1.2,0.08,1.43-0.49,1.09-1.48
		c-0.57-1.66-1.6-2.84-3.46-2.98c-1.85-0.14-3.08,0.79-3.84,2.43c-0.8,1.73-0.62,2,1.33,2.02C38.68,146.7,39.37,146.7,40.05,146.7z"
		/>
	<path class="st0" d="M146.24,148.04c-1.13,0-2.25,0.06-3.38-0.01c-1.31-0.09-1.46,0.53-1.21,1.6c0.4,1.68,1.4,2.85,3.05,3.21
		c1.72,0.37,3.22-0.17,4.13-1.83c0.15-0.27,0.29-0.55,0.44-0.83c0.28-0.49,0.75-0.44,1.15-0.3c0.65,0.22,0.32,0.74,0.18,1.09
		c-0.71,1.82-1.97,3.06-3.96,3.31c-2.22,0.28-4.35-0.04-5.62-2.12c-1.73-2.83-1.73-5.85-0.2-8.76c1.24-2.36,4.18-3.24,6.68-2.23
		c2.13,0.85,3.92,4,3.54,6.12c-0.12,0.7-0.55,0.74-1.07,0.75C148.74,148.04,147.49,148.04,146.24,148.04z M145.34,146.7
		c0.94,0,1.88-0.05,2.81,0.01c1.24,0.08,1.38-0.56,1.05-1.51c-0.58-1.66-1.6-2.84-3.48-2.95c-1.86-0.11-3.08,0.82-3.82,2.46
		c-0.76,1.67-0.58,1.96,1.19,1.99C143.84,146.71,144.59,146.7,145.34,146.7z"/>
	<path class="st0" d="M120.7,147.61c-0.02,4.2-2.54,6.87-6.36,6.74c-2.47-0.09-4.25-1.43-5.2-3.92c-1.04-2.73-0.35-6.42,1.66-8.21
		c1.87-1.67,4.07-1.82,6.33-0.93C119.33,142.16,120.71,144.7,120.7,147.61z M119.02,147.53c-0.02-2.25-1.01-4.14-2.57-4.87
		c-1.7-0.8-3.59-0.41-4.76,0.97c-1.62,1.92-1.75,5.41-0.27,7.53c1.09,1.56,2.83,2.13,4.6,1.5
		C117.88,152,119.04,150.03,119.02,147.53z"/>
	<path class="st0" d="M98.19,147.55c0.01,4.42-2.63,7.12-6.65,6.78c-1.22-0.1-2.3-0.54-3.21-1.38c-2.01-1.86-2.77-5.51-1.68-8.18
		c1.13-2.78,3.09-4.08,5.94-3.96C95.91,140.96,98.19,143.7,98.19,147.55z M87.89,147.98c0.02,2.05,1.14,4,2.91,4.66
		c1.63,0.61,3.13,0.31,4.26-0.98c1.68-1.91,1.88-4.16,1.04-6.49c-1.06-2.95-4.6-3.91-6.64-1.82
		C88.31,144.52,87.91,146.01,87.89,147.98z"/>
	<path class="st0" d="M207.95,147.5c0.02,3.94-2.14,6.65-5.47,6.84c-4.76,0.27-7.86-4.45-6.14-9.35c1.08-3.07,3.63-4.64,6.71-4.14
		C205.96,141.33,207.93,144,207.95,147.5z M197.65,147.6c0.01,2.4,1.14,4.36,2.89,5.02c2.23,0.85,4.49-0.28,5.35-2.69
		c1.1-3.05-0.06-6.47-2.49-7.4C200.38,141.39,197.64,143.8,197.65,147.6z"/>
	<path class="st0" d="M189.98,147.52c0.03,3.89-2.18,6.64-5.51,6.82c-4.67,0.26-7.72-4.29-6.16-9.19c1.01-3.17,3.62-4.83,6.77-4.29
		C188,141.36,189.95,144.02,189.98,147.52z M179.63,147.61c0.2,1.96,0.6,3.8,2.46,4.82c2.87,1.58,5.9-0.52,6.19-4.37
		c0.15-1.99-0.33-3.88-2.1-5.13c-1.28-0.9-2.7-0.96-4.07-0.22C180.17,143.77,179.82,145.68,179.63,147.61z"/>
	<path class="st0" d="M377.09,147.66c-0.02,2.77-0.92,5.12-3.62,6.24c-2.22,0.92-4.47,0.73-6.29-1.03
		c-2.28-2.21-2.53-4.99-1.66-7.83c1-3.25,3.69-4.77,6.83-4.15C375.25,141.45,377.12,144.14,377.09,147.66z M366.8,147.56
		c-0.01,2.4,1.1,4.37,2.85,5.05c1.62,0.63,3.12,0.35,4.28-0.92c1.72-1.89,1.9-4.15,1.12-6.48c-0.98-2.94-4.56-3.96-6.63-1.92
		C367.25,144.45,366.82,145.94,366.8,147.56z"/>
	<path class="st0" d="M243.49,129.6c-2.76,0.04-4.64-1.15-5.06-3.23c-0.08-0.42-0.5-1.04,0.28-1.25c0.61-0.17,0.98,0.07,1.29,0.72
		c1.03,2.19,3.07,2.91,5.25,2c0.87-0.37,1.53-0.91,1.55-1.91c0.02-1.01-0.59-1.64-1.5-1.93c-1.25-0.4-2.54-0.68-3.79-1.08
		c-1.65-0.53-2.99-1.39-2.89-3.4c0.09-1.72,1.43-2.98,3.5-3.35c2.5-0.45,4.55,0.39,5.44,2.28c0.25,0.53,0.79,1.22,0.07,1.64
		c-0.74,0.43-1.16-0.14-1.53-0.85c-0.86-1.65-2.6-2.18-4.31-1.47c-0.8,0.33-1.42,0.83-1.5,1.75c-0.08,0.99,0.61,1.51,1.38,1.81
		c1.05,0.4,2.15,0.65,3.24,0.93c2.56,0.65,3.7,1.87,3.55,3.85c-0.15,1.89-1.67,3.22-4.03,3.5
		C244.12,129.64,243.81,129.6,243.49,129.6z"/>
	<path class="st0" d="M52.18,154.34c-2.49-0.01-4.37-1.13-4.9-3c-0.13-0.48-0.56-1.14,0.2-1.46c0.73-0.3,1.05,0.12,1.37,0.81
		c0.99,2.17,3.67,2.93,5.68,1.67c0.66-0.42,1.15-1.01,1.11-1.84c-0.05-0.82-0.53-1.34-1.27-1.71c-1.31-0.65-2.78-0.74-4.14-1.19
		c-1.6-0.53-2.84-1.36-2.77-3.29c0.07-1.94,1.28-2.88,3.01-3.33c2.66-0.69,5.06,0.18,5.99,2.19c0.25,0.53,0.71,1.22-0.06,1.63
		c-0.7,0.37-1.06-0.13-1.4-0.77c-0.93-1.72-2.69-2.28-4.45-1.54c-0.74,0.31-1.3,0.78-1.37,1.63c-0.08,0.95,0.47,1.58,1.28,1.87
		c1.06,0.38,2.16,0.63,3.25,0.91c2.57,0.66,3.75,1.91,3.59,3.84c-0.17,2.03-1.86,3.42-4.37,3.58
		C52.69,154.36,52.43,154.34,52.18,154.34z"/>
	<path class="st0" d="M285.61,147.55c0-1.69,0.01-3.38,0-5.06c-0.01-1.29,0.7-1.71,1.57-0.9c0.69,0.65,0.97,0.34,1.52,0.03
		c3.84-2.18,7.16-0.33,7.22,4.01c0.03,2.38,0,4.75,0,7.13c0,0.59-0.01,1.18-0.84,1.15c-0.78-0.03-0.85-0.58-0.85-1.18
		c0-2.25,0.02-4.5-0.01-6.75c-0.04-2.54-0.83-3.58-2.75-3.71c-2.16-0.14-3.84,1.26-4,3.57c-0.14,2.12-0.04,4.25-0.08,6.37
		c-0.01,0.68,0.31,1.67-0.89,1.69c-1.26,0.03-0.85-1-0.87-1.66C285.58,150.67,285.61,149.11,285.61,147.55z"/>
	<path class="st0" d="M240.12,146.7c0.14-2.07,1-4.38,3.75-5.49c2.26-0.91,4.75-0.35,6.38,1.35c1.83,1.92,2.33,5.7,1.11,8.47
		c-0.99,2.24-3.11,3.45-5.78,3.32C242.21,154.17,240,151.35,240.12,146.7z M250.4,147.57c-0.01-3.88-2.95-6.34-5.97-4.96
		c-2.13,0.97-2.67,2.91-2.67,4.97c0,2.06,0.56,4,2.68,4.97C247.44,153.93,250.41,151.43,250.4,147.57z"/>
	<path class="st0" d="M311.21,147.53c0.01-2.75,0.88-5.05,3.56-6.26c2.2-0.99,4.76-0.48,6.42,1.16c1.96,1.94,2.5,5.7,1.24,8.6
		c-0.98,2.23-3.11,3.46-5.78,3.32C313.32,154.17,311.2,151.5,311.21,147.53z M321.46,148c0.03-1.35-0.18-2.27-0.55-3.13
		c-0.7-1.64-1.92-2.61-3.75-2.62c-1.91-0.01-3.17,1.01-3.86,2.73c-0.67,1.69-0.67,3.42-0.03,5.12c0.67,1.79,2.26,2.88,4.02,2.8
		c1.92-0.09,3.09-1.23,3.73-2.93C321.3,149.23,321.37,148.41,321.46,148z"/>
	<path class="st0" d="M96.83,129.62c-2.66,0.02-4.47-1.07-5-3.09c-0.12-0.46-0.6-1.15,0.26-1.42c0.6-0.19,0.98,0.1,1.29,0.73
		c1.05,2.19,3.06,2.9,5.24,1.99c0.89-0.37,1.49-0.95,1.53-1.93c0.04-1.02-0.59-1.63-1.5-1.91c-1.31-0.41-2.66-0.72-3.97-1.13
		c-1.54-0.49-2.74-1.38-2.68-3.18c0.06-1.88,1.21-2.92,2.96-3.39c2.65-0.71,5.06,0.14,5.98,2.17c0.24,0.53,0.77,1.23,0.04,1.63
		c-0.75,0.41-1.15-0.17-1.51-0.88c-0.85-1.66-2.74-2.17-4.49-1.39c-0.77,0.34-1.22,0.86-1.29,1.68c-0.07,0.88,0.45,1.44,1.18,1.73
		c0.93,0.36,1.89,0.63,2.86,0.87c3,0.73,4.28,1.96,4.09,4C101.62,128.29,99.74,129.61,96.83,129.62z"/>
	<path class="st0" d="M304.47,122.86c0.02-5,3.83-8.02,8.09-6.39c3.24,1.23,4.75,5.59,3.28,9.45c-1.2,3.13-4.46,4.54-7.7,3.31
		C305.74,128.33,304.45,126.09,304.47,122.86z M314.71,122.9c0.03-3.77-2.79-6.27-5.74-5.08c-2.18,0.88-2.84,2.77-2.88,4.83
		c-0.04,2.11,0.45,4.14,2.65,5.17C311.76,129.22,314.68,126.8,314.71,122.9z"/>
	<path class="st0" d="M298.65,147.55c0-1.69,0.02-3.38-0.01-5.07c-0.02-1.33,0.77-1.73,1.57-0.89c0.72,0.76,1.02,0.28,1.51,0.02
		c4.01-2.15,7.23-0.3,7.27,4.19c0.02,2.32,0,4.63,0,6.95c0,0.59-0.01,1.16-0.83,1.16c-0.8,0-0.87-0.52-0.87-1.14
		c0.01-2.25,0.02-4.51,0-6.76c-0.03-2.58-0.91-3.67-2.93-3.75c-2.08-0.08-3.78,1.44-3.92,3.72c-0.13,2.12-0.03,4.26-0.07,6.38
		c-0.01,0.62,0.29,1.51-0.83,1.54c-1.12,0.03-0.88-0.83-0.89-1.47C298.63,150.8,298.65,149.17,298.65,147.55z"/>
	<path class="st0" d="M165.52,147.45c0-1.69-0.01-3.38,0-5.06c0-0.42-0.11-0.95,0.47-1.08c0.41-0.1,1-0.2,1.15,0.31
		c0.28,0.95,0.61,0.59,1.13,0.21c1.78-1.31,3.74-1.42,5.66-0.43c1.83,0.94,1.94,2.76,1.94,4.56c0,2.06,0.03,4.13-0.02,6.19
		c-0.02,0.65,0.44,1.71-0.78,1.73c-1.38,0.03-0.85-1.14-0.88-1.83c-0.06-2.06,0.01-4.13-0.03-6.19c-0.05-2.38-1-3.52-2.9-3.61
		c-2.03-0.09-3.78,1.33-3.93,3.47c-0.16,2.24-0.07,4.5-0.09,6.75c-0.01,0.68,0.14,1.47-0.95,1.43c-1-0.04-0.77-0.81-0.77-1.39
		C165.5,150.83,165.52,149.14,165.52,147.45z"/>
	<path class="st0" d="M320.29,117.76c0.78-0.49,1.42-1.01,2.14-1.33c3.23-1.39,6.24,0.48,6.36,3.97c0.09,2.5,0.02,5.01,0.02,7.51
		c0,0.65,0.04,1.3-0.92,1.26c-0.87-0.04-0.77-0.66-0.77-1.21c-0.01-2.25,0.02-4.51-0.02-6.76c-0.04-2.39-0.99-3.58-2.84-3.68
		c-2.06-0.12-3.87,1.42-4,3.62c-0.13,2.18-0.04,4.38-0.08,6.57c-0.01,0.64,0.23,1.49-0.9,1.46c-1.16-0.02-0.8-0.92-0.81-1.52
		c-0.03-3.19-0.03-6.38,0-9.57c0.01-0.55-0.34-1.34,0.61-1.53C320.04,116.37,320.29,116.99,320.29,117.76z"/>
	<path class="st0" d="M203.89,117.84c1.19-1.15,2.4-1.81,3.95-1.78c2.67,0.05,4.3,1.41,4.42,4.07c0.12,2.62,0.03,5.26,0.04,7.88
		c0,0.59-0.01,1.15-0.84,1.16c-0.82,0.01-0.87-0.52-0.87-1.13c0-2.25,0.03-4.51-0.01-6.76c-0.04-2.51-1-3.71-2.94-3.77
		c-2.06-0.07-3.8,1.5-3.91,3.72c-0.11,2.12-0.03,4.25-0.07,6.38c-0.01,0.61,0.32,1.51-0.8,1.54c-1.29,0.04-0.89-0.97-0.9-1.61
		c-0.03-3.13-0.03-6.26,0-9.39c0.01-0.56-0.34-1.33,0.53-1.6C203.48,116.26,203.7,117.05,203.89,117.84z"/>
	<path class="st0" d="M134,145.93c0-2.19-0.03-4.37,0.01-6.56c0.02-0.88-0.27-1.24-1.18-1.2c-1.25,0.05-2.5,0.01-3.75,0.01
		c-0.52,0-1.05,0-1.03-0.73c0.01-0.73,0.55-0.71,1.06-0.71c3.87,0,7.75,0,11.62,0c0.5,0,1.06-0.05,1.1,0.68
		c0.03,0.73-0.49,0.76-1.02,0.76c-0.19,0-0.37,0-0.56,0c-4.38,0.07-4.38,0.07-4.38,4.54c0,3.25,0.01,6.5-0.01,9.74
		c0,0.65,0.19,1.45-0.92,1.45c-1.1,0.01-0.94-0.77-0.94-1.44C134,150.3,134,148.11,134,145.93z"/>
	<path class="st0" d="M293.68,116.08c2.29-0.01,4.13,1.09,4.82,2.9c0.17,0.45,0.52,1.01-0.04,1.35c-0.53,0.31-1.14,0.19-1.42-0.45
		c-0.82-1.86-2.2-2.75-4.2-2.24c-2.17,0.55-3.02,2.24-3.32,4.32c-0.23,1.62,0.06,3.13,0.94,4.49c1.64,2.5,5.09,2.29,6.42-0.36
		c0.14-0.28,0.27-0.57,0.36-0.87c0.2-0.68,0.73-0.62,1.21-0.52c0.84,0.18,0.4,0.77,0.28,1.19c-1.05,3.74-5.78,5.04-8.83,2.44
		c-3.05-2.6-2.82-8.86,0.42-11.2C291.33,116.41,292.44,116.01,293.68,116.08z"/>
	<path class="st0" d="M152.37,147.78c0-5.27,3.96-8.3,8.3-6.56c1.26,0.51,2.02,1.43,2.47,2.66c0.16,0.45,0.44,1.02-0.28,1.25
		c-0.51,0.16-1.05,0.03-1.26-0.53c-0.77-2.11-2.32-2.68-4.34-2.18c-1.78,0.44-2.97,2.17-3.2,4.42c-0.16,1.61,0.13,3.11,1.12,4.44
		c1.82,2.45,5.08,2.13,6.35-0.64c0.13-0.28,0.22-0.59,0.35-0.87c0.24-0.51,0.69-0.5,1.12-0.39c0.63,0.16,0.44,0.61,0.35,1.05
		c-0.77,3.68-5.53,5.27-8.54,2.8C153.06,151.79,152.26,149.87,152.37,147.78z"/>
	<path class="st0" d="M227.51,147.83c0-5.34,3.96-8.36,8.29-6.6c1.04,0.42,1.81,1.12,2.25,2.14c0.23,0.54,0.77,1.25,0.05,1.67
		c-0.73,0.43-1.27-0.08-1.54-0.85c-0.39-1.12-1.27-1.72-2.38-1.88c-1.52-0.23-2.84,0.18-3.82,1.47c-1.6,2.11-1.63,5.46-0.03,7.54
		c1.85,2.41,5.11,2.04,6.36-0.71c0.13-0.28,0.2-0.59,0.35-0.87c0.25-0.49,0.71-0.47,1.14-0.35c0.64,0.18,0.42,0.66,0.3,1.07
		c-0.59,1.92-1.68,3.4-3.76,3.78c-2.14,0.39-4.14,0.03-5.61-1.78C227.96,151.05,227.36,149.43,227.51,147.83z"/>
	<path class="st0" d="M348.1,147.83c0-5.36,3.89-8.36,8.26-6.6c1.24,0.5,2.07,1.39,2.48,2.64c0.15,0.44,0.41,1.03-0.32,1.24
		c-0.54,0.16-1.02-0.02-1.23-0.58c-0.39-1.07-1.07-1.85-2.18-2.15c-1.43-0.39-2.74-0.08-3.83,0.94c-2.16,2.04-2.11,6.51,0.07,8.54
		c1.87,1.74,4.71,1.22,5.82-1.07c0.16-0.34,0.25-0.71,0.4-1.05c0.24-0.51,0.71-0.48,1.13-0.38c0.67,0.15,0.43,0.64,0.31,1.05
		c-0.53,1.87-1.62,3.3-3.56,3.76c-2.2,0.52-4.25,0.11-5.8-1.71C348.48,151.07,348,149.42,348.1,147.83z"/>
	<path class="st0" d="M286.07,66.42c0.67-3.28,2.04-6.4,2.37-9.77c0.91,5.31,0.43,10.54-0.97,15.71c-0.17,0.63-0.71,1.23-0.24,1.94
		l0.02-0.02c-0.39,0.03-0.44,0.28-0.4,0.6c-1.39,1.67-3.09,2.83-5.29,3.17c-0.16-0.78,0.46-1.24,0.78-1.81
		c1.54-2.75,2.92-5.57,3.41-8.73l-0.02,0.04C286.13,67.27,286,66.81,286.07,66.42z"/>
	<path class="st0" d="M329.6,152.11c1.19-3.38,2.21-6.26,3.23-9.13c0.17-0.47,0.3-0.97,0.55-1.39c0.32-0.52,0.91-0.43,1.35-0.25
		c0.51,0.21,0.16,0.62,0.04,0.95c-1.3,3.51-2.61,7.03-3.91,10.54c-0.23,0.62-0.5,1.11-1.3,1.11c-0.79,0-1.05-0.48-1.29-1.11
		c-1.28-3.39-2.61-6.76-3.87-10.16c-0.15-0.41-0.9-1.02,0.02-1.36c0.72-0.27,1.33-0.01,1.61,0.81c0.8,2.3,1.62,4.6,2.43,6.89
		C328.78,149.89,329.11,150.76,329.6,152.11z"/>
	<path class="st0" d="M219.4,127.39c1.21-3.41,2.23-6.28,3.24-9.15c0.15-0.41,0.27-0.83,0.45-1.23c0.27-0.58,0.81-0.57,1.29-0.41
		c0.69,0.23,0.24,0.73,0.11,1.08c-1.28,3.52-2.58,7.03-3.88,10.54c-0.2,0.55-0.46,0.98-1.18,0.99c-0.77,0.01-1.1-0.37-1.35-1.03
		c-1.31-3.44-2.66-6.87-3.95-10.31c-0.14-0.37-0.75-0.94,0.02-1.26c0.71-0.29,1.35-0.08,1.63,0.75c0.55,1.59,1.09,3.19,1.66,4.77
		C218.01,123.7,218.61,125.27,219.4,127.39z"/>
	<path class="st0" d="M104.8,122.81c0-1.06-0.02-2.13,0-3.19c0.02-0.93,0.06-1.81-1.3-1.67c-0.38,0.04-0.76-0.09-0.79-0.58
		c-0.03-0.42,0.15-0.82,0.59-0.79c1.68,0.12,1.5-1,1.52-2.08c0.01-0.61-0.32-1.49,0.83-1.51c1.11-0.02,0.93,0.8,0.91,1.45
		c-0.03,1.17-0.16,2.35,1.65,2.11c0.51-0.07,0.82,0.27,0.78,0.81c-0.05,0.61-0.54,0.66-0.97,0.6c-1.42-0.2-1.48,0.66-1.46,1.71
		c0.04,2,0.02,4,0.01,6.01c-0.01,1.14,0.04,2.2,1.63,2.1c0.52-0.03,0.82,0.25,0.79,0.8c-0.03,0.48-0.38,0.55-0.78,0.62
		c-2.09,0.39-3.3-0.51-3.39-2.63C104.76,125.31,104.8,124.06,104.8,122.81z"/>
	<path class="st0" d="M388,145.35c-0.65-2.45-1.5-3.22-3.46-3.12c-1.95,0.1-3.37,1.42-3.56,3.66c-0.18,2.11-0.07,4.24-0.14,6.36
		c-0.02,0.61,0.34,1.54-0.74,1.6c-1.14,0.06-0.82-0.89-0.82-1.49c-0.03-3.25-0.02-6.5,0-9.75c0-0.45-0.23-1.07,0.43-1.28
		c0.52-0.17,0.97-0.06,1.2,0.55c0.22,0.57,0.68,0.58,1.02,0.18c1.23-1.47,2.93-0.83,4.39-0.89c1.49-0.06,3.03,1.83,3.1,3.61
		c0.11,2.68,0.04,5.37,0.05,8.06c0,0.76-0.2,1.26-1.1,0.91c-0.01-0.92,0.04-1.85-0.04-2.77C388.18,149.1,388.77,147.19,388,145.35z"
		/>
	<path class="st0" d="M251.51,122.96c0-1-0.01-2,0-3c0.01-1.06,0.23-2.24-1.51-2.03c-0.43,0.05-0.68-0.23-0.67-0.7
		c0.01-0.46,0.3-0.74,0.7-0.69c1.8,0.22,1.42-1.04,1.48-2.06c0.04-0.61-0.32-1.51,0.83-1.49c1.12,0.01,0.86,0.89,0.84,1.51
		c-0.05,1.24-0.01,2.29,1.71,2.05c0.4-0.06,0.7,0.22,0.72,0.67c0.03,0.6-0.36,0.79-0.84,0.72c-1.65-0.24-1.61,0.81-1.59,1.95
		c0.04,2.06,0.01,4.12,0.02,6.18c0,0.98,0.23,1.75,1.46,1.68c0.57-0.03,1.01,0.16,0.95,0.84c-0.06,0.62-0.56,0.55-0.99,0.59
		c-2.15,0.23-3.06-0.53-3.12-2.67C251.48,125.33,251.51,124.14,251.51,122.96z"/>
	<path class="st0" d="M81.54,143.11c0.93-0.93,1.87-1.66,3.1-1.82c0.51-0.07,1.2-0.3,1.3,0.59c0.08,0.71-0.42,0.7-0.94,0.84
		c-2.63,0.72-3.58,1.98-3.62,4.72c-0.02,1.75-0.01,3.5-0.01,5.26c0,0.59-0.02,1.17-0.82,1.21c-0.92,0.05-0.95-0.6-0.95-1.26
		c0-3.19-0.02-6.38,0.02-9.57c0.01-0.65-0.42-1.69,0.76-1.79C81.64,141.18,80.93,142.44,81.54,143.11z"/>
	<path class="st0" d="M198.8,120.54c0,2.44,0,4.88,0,7.32c0,0.62,0.1,1.29-0.86,1.33c-0.96,0.04-0.92-0.6-0.92-1.24
		c0-5,0-10.01,0.01-15.01c0-0.59-0.17-1.32,0.83-1.33c1.09-0.01,0.94,0.76,0.94,1.44C198.81,115.53,198.8,118.03,198.8,120.54z"/>
	<path class="st0" d="M280.67,145.11c0-2.44-0.01-4.88,0.01-7.32c0.01-0.63-0.25-1.48,0.9-1.45c1.01,0.03,0.82,0.76,0.82,1.35
		c0.01,4.95,0.01,9.89,0,14.84c0,0.59,0.18,1.35-0.8,1.37c-1.1,0.02-0.91-0.81-0.92-1.46C280.66,149.99,280.67,147.55,280.67,145.11
		z"/>
	<path class="st0" d="M192.13,144.97c0-2.44-0.01-4.88,0-7.32c0-0.6-0.15-1.32,0.85-1.32c0.98,0,0.87,0.69,0.87,1.31
		c0,4.94,0,9.88,0,14.82c0,0.69,0.09,1.48-0.98,1.43c-0.99-0.05-0.74-0.85-0.74-1.42C192.12,149.97,192.13,147.47,192.13,144.97z"/>
	<path class="st0" d="M73.88,143.06c0.98-0.93,1.97-1.68,3.28-1.79c0.49-0.04,1.05-0.13,1.1,0.63c0.04,0.56-0.29,0.66-0.78,0.81
		c-3.04,0.95-3.79,1.99-3.81,5.13c-0.01,1.5,0.02,3-0.01,4.5c-0.02,0.62,0.31,1.54-0.8,1.55c-1.25,0.02-0.87-1-0.87-1.66
		c-0.03-3.06-0.04-6.13,0.01-9.19c0.01-0.64-0.48-1.67,0.75-1.76C74,141.18,73.3,142.44,73.88,143.06z"/>
	<path class="st0" d="M102,145.29c0,2.43,0,4.86,0,7.3c0,0.62,0.08,1.35-0.89,1.28c-0.84-0.06-0.7-0.74-0.7-1.27
		c-0.01-4.99-0.01-9.98,0-14.97c0-0.62-0.1-1.34,0.88-1.27c0.86,0.06,0.7,0.73,0.7,1.26C102,140.18,102,142.74,102,145.29z"/>
	<path class="st0" d="M106.5,145.15c0,2.43,0.01,4.87-0.01,7.3c-0.01,0.57,0.24,1.37-0.74,1.42c-0.98,0.06-0.85-0.71-0.85-1.31
		c-0.01-4.99-0.01-9.98,0-14.97c0-0.54-0.12-1.19,0.74-1.23c1-0.04,0.84,0.71,0.85,1.31C106.51,140.16,106.5,142.65,106.5,145.15z"
		/>
	<path class="st0" d="M302.67,122.79c0,1.74,0,3.49,0,5.23c0,0.58,0.02,1.14-0.83,1.15c-0.79,0.01-0.9-0.46-0.9-1.09
		c0.01-3.43,0.01-6.85,0-10.28c0-0.68,0.06-1.28,0.95-1.26c0.84,0.02,0.78,0.64,0.78,1.2C302.67,119.43,302.67,121.11,302.67,122.79
		z"/>
	<path class="st0" d="M361.27,147.49c0-1.69,0-3.37,0-5.06c0-0.56-0.05-1.16,0.8-1.18c0.94-0.03,0.94,0.59,0.94,1.25
		c0,3.37,0,6.74,0,10.11c0,0.66-0.02,1.3-0.93,1.29c-1-0.01-0.8-0.77-0.81-1.36C361.26,150.86,361.27,149.17,361.27,147.49z"/>
	<path class="st0" d="M89.44,122.91c0,1.68,0,3.36,0,5.05c0,0.55,0.1,1.16-0.77,1.2c-0.79,0.03-0.92-0.42-0.91-1.06
		c0.01-3.43,0.01-6.85,0.01-10.28c0-0.69,0.13-1.28,1-1.22c0.88,0.06,0.66,0.76,0.66,1.28C89.45,119.55,89.44,121.23,89.44,122.91z"
		/>
	<path class="st0" d="M225.26,147.61c0,1.75,0,3.5,0,5.25c0,0.54-0.08,1.01-0.78,1.02c-0.69,0.01-0.81-0.44-0.81-0.99
		c0-3.5,0-7,0-10.5c0-0.6,0.05-1.16,0.88-1.11c0.72,0.04,0.72,0.57,0.72,1.08C225.26,144.11,225.26,145.86,225.26,147.61z"/>
	<path class="st0" d="M259.45,123.03c0,1.63,0.01,3.25,0,4.88c0,0.54,0.14,1.19-0.73,1.24c-0.84,0.05-0.86-0.53-0.86-1.12
		c0-3.44,0-6.88,0-10.31c0-0.52,0.04-1.04,0.73-1.07c0.82-0.04,0.85,0.55,0.85,1.14C259.45,119.53,259.45,121.28,259.45,123.03z"/>
	<path class="st0" d="M332.59,132.17c-0.3-0.34-0.24-0.71,0.01-1.01c0.71-0.84,1.07-1.55,0.02-2.49c-0.44-0.4-0.33-1.35-0.03-1.95
		c0.24-0.48,0.89-0.33,1.37-0.26c0.21,0.03,0.47,0.19,0.57,0.37C335.38,128.24,334.25,131.32,332.59,132.17z"/>
	<path class="st0" d="M309.36,114.92c1.02-1.33,1.14-3.74,4.19-3.2C312.02,113,311.33,114.68,309.36,114.92z"/>
	<path class="st0" d="M374.5,136.69c-1.24,1.06-2.18,1.85-3.1,2.65c-0.33,0.29-0.73,0.7-1.11,0.39c-0.6-0.48,0.05-0.86,0.31-1.21
		C371.38,137.45,371.81,135.78,374.5,136.69z"/>
	<path class="st0" d="M204.91,136.54c-1.03,1.08-1.96,2.06-2.91,3.02c-0.28,0.29-0.7,0.41-0.99,0.07c-0.23-0.27,0-0.6,0.22-0.83
		C202.19,137.78,202.47,135.73,204.91,136.54z"/>
	<path class="st0" d="M388,145.35c0.78,1.83,0.18,3.75,0.34,5.63c0.08,0.92,0.03,1.85,0.04,2.77c-0.41,0.05-0.57-0.21-0.56-0.55
		C387.91,150.58,387.56,147.96,388,145.35z"/>
	<path class="st0" d="M392.25,102.34c-0.37,0.62-0.03,1.87-1.38,1.96c-0.59,0.04-1.07-0.2-0.81-0.84c0.31-0.77,0.03-2,1.39-2.09
		C392.05,101.33,392.41,101.54,392.25,102.34z"/>
	<path class="st0" d="M300.94,112.83c-0.03-0.66,0-1.26,0.92-1.25c0.94,0.01,0.9,0.66,0.88,1.29c-0.02,0.59,0.12,1.32-0.82,1.36
		C300.87,114.27,300.94,113.52,300.94,112.83z"/>
	<path class="st0" d="M259.55,112.79c0.01,0.7,0.01,1.42-0.97,1.43c-0.94,0-0.82-0.73-0.83-1.32c-0.01-0.6-0.12-1.28,0.83-1.31
		C259.47,111.56,259.57,112.11,259.55,112.79z"/>
	<path class="st0" d="M385.93,102.19c-0.4,0.68,0,2-1.44,2.11c-0.4,0.03-0.88-0.13-0.68-0.57c0.37-0.81-0.05-2.13,1.33-2.34
		C385.61,101.31,386,101.46,385.93,102.19z"/>
	<path class="st0" d="M363.02,137.27c-0.04,0.84,0.13,1.55-0.83,1.6c-0.9,0.05-1.01-0.52-0.97-1.21c0.03-0.58-0.2-1.31,0.81-1.33
		C362.9,136.3,363.11,136.76,363.02,137.27z"/>
	<path class="st0" d="M223.56,137.32c-0.03-0.47,0.04-1.02,0.95-1c0.97,0.02,0.84,0.69,0.85,1.3c0.01,0.66-0.03,1.28-0.94,1.24
		C223.49,138.82,223.58,138.14,223.56,137.32z"/>
	<path class="st0" d="M88.01,113.77c-0.07-0.36-0.16-0.72-0.19-1.09c-0.05-0.65,0.17-1.11,0.94-1.06c0.74,0.05,0.68,0.6,0.67,1.1
		c-0.01,0.36,0.09,0.76-0.24,1.05C88.8,113.78,88.41,113.78,88.01,113.77z"/>
	<path class="st0" d="M88.01,113.77c0.4,0.01,0.79,0.01,1.19,0.02C88.8,114.45,88.4,114.48,88.01,113.77z"/>
	<path class="st0" d="M247.84,45.54c-2.87,1.47-5.33,3.43-7.14,6.13c-3,4.46-3.29,9.01-0.44,13.65c-0.29,1.34-0.58,2.69-0.88,4.03
		c-5.39-4.22-6.49-12.72-2.53-19.24c1.93-3.19,4.64-5.52,7.8-7.41C245.9,43.46,247.17,44.16,247.84,45.54z"/>
	<path class="st0" d="M241.18,41.11c-4.53,3.04-8.46,6.63-10.73,11.73c-0.53,1.19-0.93,2.43-1.39,3.65
		c-0.58-2.29-0.62-4.61-0.42-6.95c1.94-3.67,4.56-6.81,7.54-9.67C237.96,39.85,239.73,39.86,241.18,41.11z"/>
	<path class="st0" d="M229.41,64.84c-0.22,1.26,0.69,2.29,0.68,3.53c-1.58-2.39-2.84-4.89-2.87-7.85
		C228.2,61.84,228.73,63.38,229.41,64.84z"/>
	<path class="st0" d="M281.63,42.56c2.03,0.28,3.79,1.27,5.6,2.13c4.09,3.75,5.47,8.38,4.48,13.78c-0.69-3.16-0.95-6.48-3.26-9.05
		c-1.22-1.91-2.95-3.09-5.16-3.57c-0.25,0-0.5,0-0.76,0C282.23,44.74,281.93,43.65,281.63,42.56z"/>
	<path class="st0" d="M266.89,47.09c-10.61,2.86-18.8,8.73-23.5,18.92c-0.36,0.79-0.74,1.59-0.72,2.49c-0.6,0.96-0.79,2.02-0.8,3.13
		c-0.19,1.68-0.87,3.41,0.47,4.96c0.35,0.4-0.03,0.67-0.27,0.93c-0.26,0.27-0.64,0.63-0.95,0.32c-0.6-0.6-1.57-0.63-1.49-2.17
		c0.11-2.05-0.13-4.2-0.23-6.31c0.29-1.34,0.58-2.68,0.88-4.03c2.32-6.19,5.94-11.42,11.19-15.51c3.14-2.45,6.84-3.78,10.36-5.46
		c1.84-0.53,3.68-1.06,5.51-1.59c1.25-0.16,2.51-0.24,3.7-0.7c0.96-0.07,1.91-0.13,2.87-0.2c0.73,0.03,1.46,0.07,2.19,0.11
		c1.17,0.68,1.34,1.83,1.44,3.01c-0.55,0.09-1.09,0.17-1.64,0.26c-0.71-0.19-1.38-0.07-2.03,0.23c-1.11,0.03-2.2,0.14-3.22,0.62
		C269.33,46.16,268.07,46.51,266.89,47.09z"/>
	<path class="st0" d="M270.65,46.08c2.94,5.38,2.73,12.55-2.69,17.72c-0.83,0.04-1.59-0.11-2.22-0.69
		c2.42-3.07,4.01-6.41,3.57-10.48c-0.23-2.12-0.98-3.97-2.42-5.54C268.07,46.51,269.33,46.16,270.65,46.08z"/>
	<path class="st0" d="M264.85,65.94c-0.83,0.62-1.61,1.33-2.51,1.81c-0.55,0.3-1.45,0.46-1.77-0.34c-0.32-0.79,0.17-1.15,1.05-1.24
		c0.73-0.08,1.28-0.69,1.83-1.19C264.05,65.1,264.56,65.36,264.85,65.94z"/>
	<path class="st0" d="M241.87,71.64c0.02-1.11,0.21-2.17,0.8-3.13c4.04,3.51,8.97,4.5,14.09,4.95c0.82,0.22,1.41,0.67,1.56,1.55
		c-5.16,0.87-9.99-0.23-14.64-2.41C243.06,72.31,242.47,71.96,241.87,71.64z"/>
	<path class="st0" d="M273.04,82.2c-3.44,2.9-7.64,3.98-11.88,4.89c-2.17,0.47-4.4,0.72-6.64,0.45c0.02-0.12,0-0.24-0.05-0.35
		c0.57-0.01,1.06-0.47,1.66-0.28c0.28,0.24,0.49,0.16,0.65-0.14c4.21-0.97,8.32-2.21,11.94-4.69c0.41-0.28,0.87-0.5,1.1-0.99
		C270.83,81.6,272.27,80.92,273.04,82.2z"/>
	<path class="st0" d="M268.13,76.64c1.15-1.12,2.33-2.21,3.45-3.37c0.63-0.65,1.48-1.15,1.54-2.23c0.04-0.68,0.65-0.66,1.14-0.67
		c0.67-0.01,0.58,0.52,0.59,0.93c0.02,0.86,0,1.58-0.79,2.3c-1.27,1.17-2.28,2.61-3.41,3.94C269.71,77.52,268.89,77.16,268.13,76.64
		z"/>
	<path class="st0" d="M262.43,73.05c1.82-0.57,3.64-1.14,5.46-1.7c0.09-0.03,0.21,0.06,0.43,0.13c-1.45,1.21-3.12,1.82-4.77,2.48
		C262.98,73.91,262.55,73.67,262.43,73.05z"/>
	<path class="st0" d="M281.16,78.3c0.1-0.17,0.19-0.35,0.44-0.26C281.46,78.13,281.31,78.21,281.16,78.3z"/>
	<path class="st0" d="M286.85,74.88c-0.04-0.32,0-0.57,0.4-0.6C287.11,74.48,286.98,74.68,286.85,74.88z"/>
	<path class="st0" d="M286.07,66.42c-0.07,0.39,0.06,0.85-0.34,1.14C285.67,67.13,285.67,66.71,286.07,66.42z"/>
	<path class="st0" d="M275.9,45.24c0.16,1.7,1.78,3.29,0.4,5.13c-0.28,0.37-0.31,1.1-0.99,0.72c-0.52-0.29-1.42-0.96-1.15-1.29
		c1.32-1.62-0.32-2.9-0.29-4.34C274.52,45.17,275.19,45.05,275.9,45.24z"/>
	<path class="st0" d="M254.46,87.19c0.06,0.11,0.08,0.23,0.05,0.35c-1.56,0.63-3.19-0.04-4.77,0.25c0.03-0.21,0.06-0.42,0.08-0.64
		C251.38,87.17,252.92,87.18,254.46,87.19z"/>
	<path class="st0" d="M256.77,86.77c-0.16,0.3-0.37,0.38-0.65,0.14C256.28,86.6,256.49,86.53,256.77,86.77z"/>
</g>
</svg>
